<svg width="7" height="7" viewBox="0 0 7 7" fill="none" xmlns="http://www.w3.org/2000/svg">
<path d="M5.46875 3.9375C6.31444 3.9375 7 4.62306 7 5.46875C7 6.31444 6.31444 7 5.46875 7C4.62306 7 3.9375 6.31444 3.9375 5.46875C3.9375 4.62306 4.62306 3.9375 5.46875 3.9375ZM5.46875 4.5625C5.33068 4.5625 5.21875 4.67443 5.21875 4.8125V5.21875H4.8125C4.67443 5.21875 4.5625 5.33068 4.5625 5.46875C4.5625 5.60682 4.67443 5.71875 4.8125 5.71875H5.21875V6.125C5.21875 6.26307 5.33068 6.375 5.46875 6.375C5.60682 6.375 5.71875 6.26307 5.71875 6.125V5.71875H6.125C6.26307 5.71875 6.375 5.60682 6.375 5.46875C6.375 5.33068 6.26307 5.21875 6.125 5.21875H5.71875V4.8125C5.71875 4.67443 5.60682 4.5625 5.46875 4.5625Z" fill="white"/>
<path d="M3.5 3.9375C3.74698 3.9375 3.97153 3.95504 4.17578 3.98535C3.76206 4.34626 3.5 4.87661 3.5 5.46875C3.5 5.69912 3.54155 5.91954 3.61426 6.125H1.3125C1.3125 6.125 0.875 6.125 0.875 5.6875C0.875 5.25 1.3125 3.9375 3.5 3.9375ZM3.5 0.875C4.22487 0.875 4.8125 1.46263 4.8125 2.1875C4.8125 2.91237 4.22487 3.5 3.5 3.5C2.77513 3.5 2.1875 2.91237 2.1875 2.1875C2.1875 1.46263 2.77513 0.875 3.5 0.875Z" fill="white"/>
</svg>
