<svg width="12" height="12" viewBox="0 0 12 12" fill="none" xmlns="http://www.w3.org/2000/svg">
<path d="M6 12C6.82843 12 7.5 11.3284 7.5 10.5H4.5C4.5 11.3284 5.17157 12 6 12Z" fill="white"/>
<path d="M6.74637 0.824275C6.74877 0.799842 6.75 0.775065 6.75 0.75C6.75 0.335786 6.41421 0 6 0C5.58579 0 5.25 0.335786 5.25 0.75C5.25 0.775067 5.25123 0.799846 5.25363 0.824282C3.54015 1.17034 2.25002 2.6845 2.25002 4.5C2.25002 5.3232 1.875 9 0.75 9.75H11.25C10.125 9 9.75002 5.3232 9.75002 4.5C9.75002 2.68449 8.45987 1.17032 6.74637 0.824275Z" fill="white"/>
</svg>
