<svg width="11" height="11" viewBox="0 0 11 11" fill="none" xmlns="http://www.w3.org/2000/svg">
<path d="M0.6875 1.94397C1.29592 1.68975 2.16831 1.41588 3.01653 1.33032C3.93112 1.23807 4.7069 1.3737 5.15625 1.84712V8.5474C4.51351 8.18299 3.6992 8.13298 2.94753 8.2088C2.13601 8.29065 1.31842 8.5258 0.6875 8.76636V1.94397ZM5.84375 1.84712C6.2931 1.3737 7.06888 1.23807 7.98347 1.33032C8.83169 1.41588 9.70408 1.68975 10.3125 1.94397V8.76636C9.68158 8.5258 8.86399 8.29065 8.05247 8.2088C7.3008 8.13298 6.48649 8.18299 5.84375 8.5474V1.84712ZM5.5 1.22587C4.82287 0.643832 3.84095 0.556181 2.94753 0.646295C1.90659 0.751289 0.855654 1.1085 0.201505 1.40584C0.0787885 1.46162 0 1.58398 0 1.71878V9.28128C0 9.39816 0.0593836 9.50702 0.157649 9.5703C0.255914 9.63357 0.379596 9.64258 0.485995 9.59422C1.09226 9.31864 2.06945 8.98835 3.01653 8.89283C3.98451 8.79519 4.79701 8.95281 5.23158 9.49602C5.29681 9.57756 5.39557 9.62503 5.5 9.62503C5.60443 9.62503 5.70319 9.57756 5.76842 9.49602C6.20299 8.95281 7.01549 8.79519 7.98347 8.89283C8.93054 8.98835 9.90774 9.31864 10.514 9.59422C10.6204 9.64258 10.7441 9.63357 10.8424 9.5703C10.9406 9.50702 11 9.39816 11 9.28128V1.71878C11 1.58398 10.9212 1.46162 10.7985 1.40584C10.1443 1.1085 9.09341 0.751289 8.05247 0.646295C7.15905 0.556181 6.17713 0.643832 5.5 1.22587Z" fill="#4D4D4D"/>
</svg>
