<svg width="11" height="11" viewBox="0 0 11 11" fill="none" xmlns="http://www.w3.org/2000/svg">
<path d="M1.375 2.0625C1.375 2.25235 1.5289 2.40625 1.71875 2.40625H9.28125C9.4711 2.40625 9.625 2.25235 9.625 2.0625C9.625 1.87265 9.4711 1.71875 9.28125 1.71875H1.71875C1.5289 1.71875 1.375 1.87265 1.375 2.0625Z" fill="#4D4D4D"/>
<path d="M2.75 0.6875C2.75 0.877348 2.9039 1.03125 3.09375 1.03125H7.90625C8.0961 1.03125 8.25 0.877348 8.25 0.6875C8.25 0.497652 8.0961 0.34375 7.90625 0.34375H3.09375C2.9039 0.34375 2.75 0.497652 2.75 0.6875Z" fill="#4D4D4D"/>
<path d="M4.65094 4.521C4.54497 4.45477 4.41141 4.45126 4.30211 4.51184C4.19281 4.57242 4.125 4.68754 4.125 4.8125V8.25C4.125 8.37496 4.19281 8.49008 4.30211 8.55066C4.41141 8.61124 4.54497 8.60773 4.65094 8.5415L7.40094 6.82275C7.50144 6.75993 7.5625 6.64977 7.5625 6.53125C7.5625 6.41273 7.50144 6.30257 7.40094 6.23975L4.65094 4.521Z" fill="#4D4D4D"/>
<path d="M1.03125 9.96875C0.461706 9.96875 0 9.50704 0 8.9375V4.125C0 3.55546 0.461706 3.09375 1.03125 3.09375H9.96875C10.5383 3.09375 11 3.55546 11 4.125V8.9375C11 9.50704 10.5383 9.96875 9.96875 9.96875H1.03125ZM9.96875 9.28125C10.1586 9.28125 10.3125 9.12735 10.3125 8.9375V4.125C10.3125 3.93515 10.1586 3.78125 9.96875 3.78125H1.03125C0.841402 3.78125 0.6875 3.93515 0.6875 4.125V8.9375C0.6875 9.12735 0.841402 9.28125 1.03125 9.28125H9.96875Z" fill="#4D4D4D"/>
</svg>
