<svg width="11" height="12" viewBox="0 0 11 12" fill="none" xmlns="http://www.w3.org/2000/svg">
<path d="M5.5 11.0113C8.34772 11.0113 10.6562 8.70275 10.6562 5.85503C10.6562 3.47391 9.04224 1.46975 6.84857 0.876926C6.86578 0.816751 6.87499 0.753202 6.87499 0.6875C6.87499 0.307804 6.56719 0 6.18749 0H4.81249C4.4328 0 4.12499 0.307804 4.12499 0.6875C4.12499 0.753203 4.13421 0.816754 4.15142 0.876929C1.95776 1.46976 0.34375 3.47391 0.34375 5.85503C0.34375 8.70275 2.65228 11.0113 5.5 11.0113ZM9.96875 5.85504C9.96875 8.32306 7.96802 10.3238 5.5 10.3238C3.03198 10.3238 1.03125 8.32306 1.03125 5.85504C1.03125 3.38702 3.03198 1.38629 5.5 1.38629C7.96802 1.38629 9.96875 3.38702 9.96875 5.85504Z" fill="#BC281C"/>
<path d="M4.77083 5.11454L8.17378 3.16999L6.22924 6.57295L2.82629 8.51749L4.77083 5.11454Z" fill="#BC281C"/>
</svg>
