<svg width="6" height="6" viewBox="0 0 6 6" fill="none" xmlns="http://www.w3.org/2000/svg">
<path d="M4.65609 0.999381C4.29945 0.835707 3.92313 0.718893 3.5365 0.65185C3.53299 0.65126 3.5294 0.65177 3.52619 0.653309C3.52299 0.654847 3.52035 0.65734 3.51862 0.660444C3.47015 0.746381 3.41653 0.858788 3.37906 0.946788C2.9623 0.883541 2.53838 0.883541 2.12162 0.946788C2.07983 0.848756 2.03254 0.753157 1.98 0.660444C1.97823 0.657374 1.97558 0.65491 1.97239 0.653376C1.9692 0.651842 1.96562 0.65131 1.96212 0.65185C1.57542 0.71862 1.19906 0.835446 0.842528 0.999381C0.839478 1.00055 0.836926 1.00273 0.83531 1.00557C0.122372 2.07085 -0.0732217 3.11001 0.0226845 4.1361C0.0230283 4.14091 0.026122 4.14573 0.0299033 4.14882C0.445062 4.45634 0.909422 4.69113 1.40318 4.84319C1.40667 4.84429 1.41042 4.84425 1.41388 4.84308C1.41734 4.8419 1.42034 4.83966 1.42243 4.83666C1.52831 4.69229 1.6225 4.54001 1.70362 4.37982C1.70474 4.37763 1.70538 4.37523 1.70549 4.37278C1.70561 4.37033 1.7052 4.36788 1.70428 4.3656C1.70337 4.36332 1.70198 4.36126 1.70021 4.35956C1.69843 4.35786 1.69632 4.35657 1.694 4.35576C1.5459 4.29884 1.40246 4.23045 1.265 4.15123C1.26249 4.14977 1.26037 4.14772 1.25885 4.14525C1.25733 4.14278 1.25644 4.13997 1.25627 4.13708C1.2561 4.13418 1.25665 4.13129 1.25788 4.12866C1.2591 4.12603 1.26095 4.12374 1.26328 4.12201C1.29215 4.10035 1.32103 4.07766 1.34853 4.05497C1.35096 4.05302 1.35387 4.05177 1.35696 4.05134C1.36005 4.05092 1.36319 4.05134 1.36606 4.05257C2.26634 4.46369 3.24087 4.46369 4.13015 4.05257C4.13312 4.05124 4.13639 4.05077 4.1396 4.05119C4.14282 4.05162 4.14586 4.05293 4.14837 4.05497C4.17587 4.07766 4.20475 4.10035 4.23362 4.12201C4.23596 4.12372 4.23784 4.12598 4.23909 4.12859C4.24034 4.13121 4.24093 4.13409 4.24079 4.13699C4.24065 4.13988 4.2398 4.1427 4.23831 4.14518C4.23682 4.14767 4.23474 4.14974 4.23225 4.15123C4.09509 4.23117 3.95147 4.29947 3.8029 4.35541C3.8006 4.3563 3.79852 4.35766 3.79678 4.3594C3.79504 4.36115 3.79369 4.36324 3.79281 4.36554C3.79194 4.36785 3.79156 4.37031 3.7917 4.37277C3.79183 4.37523 3.79249 4.37763 3.79362 4.37982C3.87612 4.53966 3.97065 4.69229 4.07447 4.83666C4.07656 4.83966 4.07956 4.8419 4.08302 4.84308C4.08648 4.84425 4.09023 4.84429 4.09372 4.84319C4.58831 4.69161 5.05342 4.45678 5.46906 4.14882C5.47112 4.14736 5.47284 4.14546 5.47409 4.14327C5.47534 4.14107 5.47608 4.13862 5.47628 4.1361C5.59109 2.94982 5.28412 1.91926 4.66297 1.00591C4.66234 1.0044 4.6614 1.00304 4.66022 1.00192C4.65904 1.00079 4.65763 0.999929 4.65609 0.999381V0.999381ZM1.83803 3.51116C1.56681 3.51116 1.34372 3.26229 1.34372 2.95704C1.34372 2.65144 1.56268 2.40257 1.83803 2.40257C2.11543 2.40257 2.33647 2.65351 2.33234 2.95704C2.33234 3.26229 2.11337 3.51116 1.83803 3.51116ZM3.6654 3.51116C3.39453 3.51116 3.17109 3.26229 3.17109 2.95704C3.17109 2.65144 3.39006 2.40257 3.6654 2.40257C3.94281 2.40257 4.16418 2.65351 4.15972 2.95704C4.15972 3.26229 3.94281 3.51116 3.6654 3.51116Z" fill="white"/>
</svg>
