<svg width="12" height="12" viewBox="0 0 12 12" fill="none" xmlns="http://www.w3.org/2000/svg">
<path d="M10.1588 2.18016C9.38064 1.82305 8.55956 1.56818 7.716 1.42191C7.70836 1.42062 7.70051 1.42173 7.69353 1.42509C7.68654 1.42845 7.68077 1.43389 7.677 1.44066C7.57125 1.62816 7.45425 1.87341 7.3725 2.06541C6.46321 1.92741 5.5383 1.92741 4.629 2.06541C4.53782 1.85152 4.43465 1.64294 4.32 1.44066C4.31616 1.43396 4.31037 1.42858 4.30341 1.42524C4.29645 1.42189 4.28864 1.42073 4.281 1.42191C3.4373 1.56759 2.61615 1.82248 1.83825 2.18016C1.8316 2.1827 1.82603 2.18747 1.8225 2.19366C0.267005 4.51791 -0.159745 6.78516 0.0495046 9.02391C0.0502546 9.03441 0.0570046 9.04491 0.0652546 9.05166C0.971055 9.72261 1.9842 10.2349 3.0615 10.5667C3.06911 10.5691 3.07728 10.569 3.08484 10.5664C3.09239 10.5638 3.09893 10.5589 3.1035 10.5524C3.3345 10.2374 3.54 9.90516 3.717 9.55566C3.71945 9.55089 3.72084 9.54565 3.72109 9.5403C3.72134 9.53495 3.72044 9.5296 3.71845 9.52463C3.71646 9.51966 3.71343 9.51516 3.70955 9.51146C3.70568 9.50776 3.70106 9.50493 3.696 9.50316C3.37288 9.37897 3.05993 9.22977 2.76 9.05691C2.75453 9.05374 2.74992 9.04926 2.7466 9.04387C2.74327 9.03849 2.74134 9.03236 2.74097 9.02604C2.7406 9.01972 2.7418 9.01341 2.74447 9.00767C2.74713 9.00193 2.75119 8.99695 2.75625 8.99316C2.81925 8.94591 2.88225 8.89641 2.94225 8.84691C2.94755 8.84265 2.95391 8.83991 2.96065 8.83898C2.96739 8.83806 2.97425 8.83898 2.9805 8.84166C4.94475 9.73866 7.071 9.73866 9.01125 8.84166C9.01772 8.83877 9.02485 8.83773 9.03187 8.83866C9.03889 8.83958 9.04551 8.84244 9.051 8.84691C9.111 8.89641 9.174 8.94591 9.237 8.99316C9.24211 8.99689 9.24621 9.00183 9.24894 9.00753C9.25167 9.01323 9.25294 9.01952 9.25265 9.02584C9.25235 9.03215 9.25049 9.0383 9.24724 9.04372C9.24398 9.04914 9.23944 9.05367 9.234 9.05691C8.93475 9.23132 8.62141 9.38035 8.29725 9.50241C8.29224 9.50434 8.28768 9.5073 8.28389 9.51111C8.2801 9.51492 8.27715 9.51949 8.27524 9.52451C8.27333 9.52953 8.2725 9.53491 8.2728 9.54027C8.27311 9.54564 8.27454 9.55088 8.277 9.55566C8.457 9.90441 8.66325 10.2374 8.88975 10.5524C8.89433 10.5589 8.90087 10.5638 8.90842 10.5664C8.91597 10.569 8.92415 10.5691 8.93175 10.5667C10.0109 10.2359 11.0257 9.72358 11.9325 9.05166C11.937 9.04848 11.9408 9.04434 11.9435 9.03954C11.9462 9.03474 11.9478 9.02941 11.9483 9.02391C12.1988 6.43566 11.529 4.18716 10.1738 2.19441C10.1724 2.19112 10.1703 2.18815 10.1678 2.18569C10.1652 2.18324 10.1621 2.18135 10.1588 2.18016V2.18016ZM4.01025 7.66041C3.4185 7.66041 2.93175 7.11741 2.93175 6.45141C2.93175 5.78466 3.4095 5.24166 4.01025 5.24166C4.6155 5.24166 5.09775 5.78916 5.08875 6.45141C5.08875 7.11741 4.611 7.66041 4.01025 7.66041ZM7.99725 7.66041C7.40625 7.66041 6.91875 7.11741 6.91875 6.45141C6.91875 5.78466 7.3965 5.24166 7.99725 5.24166C8.6025 5.24166 9.0855 5.78916 9.07575 6.45141C9.07575 7.11741 8.6025 7.66041 7.99725 7.66041Z" fill="white"/>
</svg>
