<svg width="11" height="11" viewBox="0 0 11 11" fill="none" xmlns="http://www.w3.org/2000/svg">
<path d="M0 2.75C0 2.75 0 1.375 1.375 1.375H9.625C9.625 1.375 11 1.375 11 2.75V6.875C11 6.875 11 8.25 9.625 8.25H6.875C6.875 8.70833 6.93229 9.05208 7.04688 9.28125H7.5625C7.75235 9.28125 7.90625 9.43515 7.90625 9.625C7.90625 9.81485 7.75235 9.96875 7.5625 9.96875H3.4375C3.24765 9.96875 3.09375 9.81485 3.09375 9.625C3.09375 9.43515 3.24765 9.28125 3.4375 9.28125H3.95312C4.06771 9.05208 4.125 8.70833 4.125 8.25H1.375C1.375 8.25 0 8.25 0 6.875V2.75ZM0.961435 2.16188C0.888893 2.21024 0.831952 2.27964 0.786794 2.36996C0.740289 2.46297 0.71361 2.5643 0.69963 2.64818C0.692912 2.68849 0.689818 2.72058 0.688438 2.7399C0.687866 2.74791 0.687607 2.75346 0.6875 2.7562V6.875C0.6875 7.09845 0.741387 7.22033 0.786878 7.28857C0.835239 7.36111 0.904643 7.41805 0.994959 7.46321C1.08797 7.50971 1.1893 7.53639 1.27318 7.55037C1.31349 7.55709 1.34558 7.56018 1.3649 7.56156C1.37291 7.56213 1.37847 7.56239 1.38121 7.5625H9.625C9.84845 7.5625 9.97033 7.50861 10.0386 7.46312C10.1111 7.41476 10.168 7.34536 10.2132 7.25504C10.2597 7.16203 10.2864 7.0607 10.3004 6.97682C10.3071 6.93651 10.3102 6.90442 10.3116 6.8851C10.3121 6.87709 10.3124 6.87153 10.3125 6.86879V2.75C10.3125 2.52655 10.2586 2.40467 10.2131 2.33643C10.1648 2.26389 10.0954 2.20695 10.005 2.16179C9.91203 2.11529 9.8107 2.08861 9.72682 2.07463C9.68651 2.06791 9.65442 2.06482 9.6351 2.06344C9.62709 2.06287 9.62154 2.06261 9.6188 2.0625H1.375C1.15155 2.0625 1.02967 2.11639 0.961435 2.16188Z" fill="#4D4D4D"/>
</svg>
