<svg width="11" height="11" viewBox="0 0 11 11" fill="none" xmlns="http://www.w3.org/2000/svg">
<path d="M4.125 7.21875C4.125 7.0289 4.2789 6.875 4.46875 6.875H6.53125C6.7211 6.875 6.875 7.0289 6.875 7.21875C6.875 7.4086 6.7211 7.5625 6.53125 7.5625H4.46875C4.2789 7.5625 4.125 7.4086 4.125 7.21875Z" fill="#4D4D4D"/>
<path d="M2.75 5.15625C2.75 4.9664 2.9039 4.8125 3.09375 4.8125H7.90625C8.0961 4.8125 8.25 4.9664 8.25 5.15625C8.25 5.3461 8.0961 5.5 7.90625 5.5H3.09375C2.9039 5.5 2.75 5.3461 2.75 5.15625Z" fill="#4D4D4D"/>
<path d="M1.375 3.09375C1.375 2.9039 1.5289 2.75 1.71875 2.75H9.28125C9.4711 2.75 9.625 2.9039 9.625 3.09375C9.625 3.2836 9.4711 3.4375 9.28125 3.4375H1.71875C1.5289 3.4375 1.375 3.2836 1.375 3.09375Z" fill="#4D4D4D"/>
</svg>
