<svg width="6" height="7" viewBox="0 0 6 7" fill="none" xmlns="http://www.w3.org/2000/svg">
<path d="M3.85235 1.94225L3.50696 1.58854L3.77527 1.32655L4.00846 1.56536L4.34222 1.56139C4.95072 1.55414 5.44586 2.04928 5.43861 2.65778L5.43464 2.99154L5.67345 3.22473C6.10885 3.64988 6.10885 4.35012 5.67345 4.77527L5.43464 5.00846L5.43861 5.34222C5.44586 5.95072 4.95072 6.44586 4.34222 6.43861L4.00846 6.43464L3.77527 6.67345C3.35012 7.10885 2.64988 7.10885 2.22473 6.67345L1.99154 6.43464L1.65778 6.43861C1.04928 6.44586 0.554139 5.95072 0.561388 5.34222L0.565363 5.00846L0.326549 4.77527C-0.10885 4.35012 -0.10885 3.64988 0.326549 3.22473L0.565363 2.99154L0.561388 2.65778C0.554139 2.04928 1.04928 1.55414 1.65778 1.56139L1.99154 1.56536L2.22473 1.32655C2.64988 0.89115 3.35012 0.89115 3.77527 1.32655L3.50696 1.58854C3.22895 1.30382 2.77105 1.30382 2.49304 1.58854L2.14765 1.94225L1.65332 1.93636C1.25541 1.93162 0.931621 2.25541 0.936361 2.65332L0.942249 3.14765L0.588537 3.49304C0.303821 3.77105 0.303821 4.22895 0.588537 4.50696L0.942249 4.85235L0.936361 5.34668C0.931621 5.74459 1.25541 6.06838 1.65332 6.06364L2.14765 6.05775L2.49304 6.41146C2.77105 6.69618 3.22895 6.69618 3.50696 6.41146L3.85235 6.05775L4.34668 6.06364C4.74459 6.06838 5.06838 5.74459 5.06364 5.34668L5.05775 4.85235L5.41146 4.50696C5.69618 4.22895 5.69618 3.77105 5.41146 3.49304L5.05775 3.14765L5.06364 2.65332C5.06838 2.25541 4.74459 1.93162 4.34668 1.93636L3.85235 1.94225Z" fill="white"/>
<path fill-rule="evenodd" clip-rule="evenodd" d="M3.00001 2.71436C3.14202 2.71436 3.25715 2.82948 3.25715 2.9715V3.74293H4.02858C4.1706 3.74293 4.28572 3.85805 4.28572 4.00007C4.28572 4.14209 4.1706 4.25721 4.02858 4.25721H3.25715V5.02864C3.25715 5.17066 3.14202 5.28578 3.00001 5.28578C2.85799 5.28578 2.74287 5.17066 2.74287 5.02864V4.25721H1.97144C1.82942 4.25721 1.71429 4.14209 1.71429 4.00007C1.71429 3.85805 1.82942 3.74293 1.97144 3.74293H2.74287V2.9715C2.74287 2.82948 2.85799 2.71436 3.00001 2.71436Z" fill="white"/>
</svg>
