<svg width="11" height="11" viewBox="0 0 11 11" fill="none" xmlns="http://www.w3.org/2000/svg">
<path d="M10.3125 9.625C10.3125 9.625 11 9.625 11 8.9375C11 8.25 10.3125 6.1875 7.5625 6.1875C4.8125 6.1875 4.125 8.25 4.125 8.9375C4.125 9.625 4.8125 9.625 4.8125 9.625H10.3125ZM4.82786 8.9375C4.82548 8.93722 4.82215 8.93679 4.8181 8.93611C4.8162 8.93579 4.81433 8.93546 4.81251 8.93511C4.8135 8.75358 4.92722 8.22725 5.33449 7.75211C5.71542 7.30768 6.38185 6.875 7.5625 6.875C8.74315 6.875 9.40958 7.30768 9.79051 7.75211C10.1978 8.22725 10.3115 8.75358 10.3125 8.93511C10.3107 8.93546 10.3088 8.93579 10.3069 8.93611C10.3029 8.93679 10.2995 8.93722 10.2971 8.9375H4.82786Z" fill="#4D4D4D"/>
<path d="M7.5625 4.8125C8.32189 4.8125 8.9375 4.19689 8.9375 3.4375C8.9375 2.67811 8.32189 2.0625 7.5625 2.0625C6.80311 2.0625 6.1875 2.67811 6.1875 3.4375C6.1875 4.19689 6.80311 4.8125 7.5625 4.8125ZM9.625 3.4375C9.625 4.57659 8.70159 5.5 7.5625 5.5C6.42341 5.5 5.5 4.57659 5.5 3.4375C5.5 2.29841 6.42341 1.375 7.5625 1.375C8.70159 1.375 9.625 2.29841 9.625 3.4375Z" fill="#4D4D4D"/>
<path d="M4.76845 6.37998C4.51559 6.2991 4.23468 6.2403 3.92307 6.21023C3.76884 6.19534 3.60709 6.1875 3.4375 6.1875C0.6875 6.1875 0 8.25 0 8.9375C0 9.39583 0.229167 9.625 0.6875 9.625H3.58625C3.48945 9.42969 3.4375 9.19816 3.4375 8.9375C3.4375 8.24293 3.69686 7.53364 4.18675 6.94113C4.35412 6.7387 4.54841 6.5499 4.76845 6.37998ZM3.38253 6.87532C2.97176 7.50311 2.75 8.21885 2.75 8.9375H0.6875C0.6875 8.75825 0.800418 8.22936 1.20949 7.75211C1.58447 7.31463 2.23609 6.88853 3.38253 6.87532Z" fill="#4D4D4D"/>
<path d="M1.03125 3.78125C1.03125 2.64216 1.95466 1.71875 3.09375 1.71875C4.23284 1.71875 5.15625 2.64216 5.15625 3.78125C5.15625 4.92034 4.23284 5.84375 3.09375 5.84375C1.95466 5.84375 1.03125 4.92034 1.03125 3.78125ZM3.09375 2.40625C2.33436 2.40625 1.71875 3.02186 1.71875 3.78125C1.71875 4.54064 2.33436 5.15625 3.09375 5.15625C3.85314 5.15625 4.46875 4.54064 4.46875 3.78125C4.46875 3.02186 3.85314 2.40625 3.09375 2.40625Z" fill="#4D4D4D"/>
</svg>
