<svg width="11" height="11" viewBox="0 0 11 11" fill="none" xmlns="http://www.w3.org/2000/svg">
<path d="M5.5 10.3125C2.84213 10.3125 0.6875 8.15787 0.6875 5.5C0.6875 2.84213 2.84213 0.6875 5.5 0.6875C8.15787 0.6875 10.3125 2.84213 10.3125 5.5C10.3125 8.15787 8.15787 10.3125 5.5 10.3125ZM5.5 11C8.53757 11 11 8.53757 11 5.5C11 2.46243 8.53757 0 5.5 0C2.46243 0 0 2.46243 0 5.5C0 8.53757 2.46243 11 5.5 11Z" fill="#4D4D4D"/>
<path d="M3.61289 3.97798C3.60767 4.07163 3.68493 4.14749 3.77873 4.14749H4.34556C4.44049 4.14749 4.51597 4.07009 4.52872 3.97603C4.58988 3.52494 4.89947 3.19614 5.45134 3.19614C5.92265 3.19614 6.35469 3.43179 6.35469 3.99911C6.35469 4.43552 6.09721 4.63626 5.69136 4.94174C5.22877 5.27777 4.8622 5.67053 4.88838 6.30768L4.89042 6.45673C4.89171 6.55073 4.96828 6.62625 5.06228 6.62625H5.61986C5.71478 6.62625 5.79173 6.5493 5.79173 6.45438V6.38187C5.79173 5.88873 5.97938 5.74472 6.48561 5.36069C6.90455 5.04211 7.34096 4.68863 7.34096 3.94675C7.34096 2.90811 6.46379 2.40625 5.50371 2.40625C4.63259 2.40625 3.67788 2.81229 3.61289 3.97798ZM4.68327 7.93982C4.68327 8.3064 4.97566 8.57697 5.37715 8.57697C5.7961 8.57697 6.08412 8.3064 6.08412 7.93982C6.08412 7.56015 5.7961 7.29395 5.37715 7.29395C4.97566 7.29395 4.68327 7.56015 4.68327 7.93982Z" fill="#4D4D4D"/>
</svg>
