<svg width="11" height="11" viewBox="0 0 11 11" fill="none" xmlns="http://www.w3.org/2000/svg">
<path d="M4.23957 10.0834L4.05624 8.61675C3.95693 8.57855 3.86336 8.53272 3.77551 8.47925C3.68766 8.42578 3.60172 8.36848 3.5177 8.30737L2.15415 8.88029L0.893738 6.70321L2.07395 5.80946C2.06631 5.75598 2.06249 5.70442 2.06249 5.65477V5.34539C2.06249 5.29574 2.06631 5.24418 2.07395 5.19071L0.893738 4.29696L2.15415 2.11987L3.5177 2.69279C3.60172 2.63168 3.68957 2.57439 3.78124 2.52091C3.8729 2.46744 3.96457 2.42161 4.05624 2.38341L4.23957 0.916748H6.7604L6.94374 2.38341C7.04304 2.42161 7.13662 2.46744 7.22447 2.52091C7.31231 2.57439 7.39825 2.63168 7.48228 2.69279L8.84582 2.11987L10.1062 4.29696L8.92603 5.19071C8.93367 5.24418 8.93749 5.29574 8.93749 5.34539V5.65477C8.93749 5.70442 8.92985 5.75598 8.91457 5.80946L10.0948 6.70321L8.83436 8.88029L7.48228 8.30737C7.39825 8.36848 7.3104 8.42578 7.21874 8.47925C7.12707 8.53272 7.0354 8.57855 6.94374 8.61675L6.7604 10.0834H4.23957ZM5.04165 9.16675H5.94686L6.10728 7.95216C6.34408 7.89105 6.5637 7.8013 6.76613 7.68289C6.96856 7.56449 7.15381 7.42126 7.32186 7.25321L8.45624 7.723L8.90311 6.94383L7.9177 6.19904C7.95589 6.0921 7.98263 5.97942 7.9979 5.86102C8.01318 5.74262 8.02082 5.6223 8.02082 5.50008C8.02082 5.37786 8.01318 5.25755 7.9979 5.13914C7.98263 5.02074 7.95589 4.90807 7.9177 4.80112L8.90311 4.05633L8.45624 3.27716L7.32186 3.75841C7.15381 3.58272 6.96856 3.43567 6.76613 3.31727C6.5637 3.19887 6.34408 3.10911 6.10728 3.048L5.95832 1.83341H5.05311L4.8927 3.048C4.65589 3.10911 4.43627 3.19887 4.23384 3.31727C4.03141 3.43567 3.84617 3.5789 3.67811 3.74696L2.54374 3.27716L2.09686 4.05633L3.08228 4.78966C3.04409 4.90425 3.01735 5.01883 3.00207 5.13341C2.98679 5.248 2.97915 5.37022 2.97915 5.50008C2.97915 5.6223 2.98679 5.74071 3.00207 5.85529C3.01735 5.96987 3.04409 6.08446 3.08228 6.19904L2.09686 6.94383L2.54374 7.723L3.67811 7.24175C3.84617 7.41744 4.03141 7.56449 4.23384 7.68289C4.43627 7.8013 4.65589 7.89105 4.8927 7.95216L5.04165 9.16675ZM5.5229 7.10425C5.96596 7.10425 6.34408 6.94765 6.65728 6.63446C6.97047 6.32126 7.12707 5.94314 7.12707 5.50008C7.12707 5.05703 6.97047 4.6789 6.65728 4.36571C6.34408 4.05251 5.96596 3.89591 5.5229 3.89591C5.07221 3.89591 4.69218 4.05251 4.3828 4.36571C4.07343 4.6789 3.91874 5.05703 3.91874 5.50008C3.91874 5.94314 4.07343 6.32126 4.3828 6.63446C4.69218 6.94765 5.07221 7.10425 5.5229 7.10425Z" fill="#4D4D4D"/>
</svg>
