<svg width="7" height="6" viewBox="0 0 7 6" fill="none" xmlns="http://www.w3.org/2000/svg">
<path d="M0.77968 3.55208C1.12331 4.67966 2.17261 5.5 3.41373 5.5C4.93412 5.5 6.16669 4.26875 6.16669 2.75C6.16669 1.23122 4.93412 0 3.41373 0C1.95476 0 0.760973 1.13373 0.666687 2.5673C0.667082 2.56796 0.667476 2.56862 0.66787 2.56928C0.667867 2.56934 0.667876 2.56919 0.66787 2.56928L2.14714 3.17725C2.18738 3.15082 2.23027 3.12792 2.27604 3.10927C2.37987 3.06655 2.48938 3.04743 2.5985 3.05238L3.27216 2.07485C3.27192 2.0705 3.27192 2.06588 3.27192 2.06125C3.27192 1.48434 3.74099 1.01502 4.31757 1.01502C4.89439 1.01502 5.36322 1.48434 5.36322 2.06125C5.36322 2.63811 4.89439 3.10786 4.31757 3.10786C4.30978 3.10786 4.30174 3.10762 4.29394 3.10738L3.33005 3.79547C3.33289 3.9017 3.31328 4.00816 3.27121 4.10966C3.10958 4.49796 2.66157 4.68279 2.27302 4.52062C2.03553 4.42172 1.87456 4.21612 1.82205 3.98172L0.77968 3.55208Z" fill="white"/>
<path d="M2.34003 4.35964C2.64004 4.48451 2.98519 4.34217 3.11029 4.04215C3.17079 3.89721 3.17102 3.7367 3.11124 3.59129C3.05145 3.44588 2.93864 3.3321 2.79324 3.27167C2.64902 3.21172 2.49467 3.21361 2.35889 3.26507L2.71077 3.41071C2.9319 3.50277 3.03656 3.75676 2.94431 3.97794C2.85234 4.19888 2.5985 4.30369 2.37725 4.21163L2.03685 4.07071C2.09713 4.19652 2.20163 4.30204 2.34003 4.35964Z" fill="white"/>
<path d="M3.62095 2.06125C3.62095 2.44573 3.93358 2.7585 4.31757 2.7585C4.70181 2.7585 5.01444 2.44573 5.01444 2.06125C5.01444 1.67708 4.70181 1.36421 4.31757 1.36421C3.93358 1.36421 3.62095 1.67708 3.62095 2.06125ZM4.31876 1.53637C4.60776 1.53637 4.84217 1.77095 4.84217 2.06019C4.84217 2.34944 4.60776 2.58382 4.31876 2.58382C4.02999 2.58382 3.79558 2.34944 3.79558 2.06019C3.79558 1.77095 4.02999 1.53637 4.31876 1.53637Z" fill="white"/>
</svg>
