<svg width="6" height="6" viewBox="0 0 6 6" fill="none" xmlns="http://www.w3.org/2000/svg">
<path d="M2.22769 5.15625C4.30312 5.15625 5.43878 3.43648 5.43878 1.94763C5.43878 1.89925 5.43878 1.85087 5.43657 1.80249C5.65666 1.64415 5.84814 1.44402 6 1.2175C5.79752 1.30767 5.57963 1.36705 5.35074 1.39564C5.58403 1.25709 5.76231 1.03497 5.84814 0.771069C5.63025 0.900821 5.38816 0.993187 5.13065 1.04377C4.92377 0.82385 4.63105 0.6875 4.30752 0.6875C3.68467 0.6875 3.17847 1.19331 3.17847 1.81568C3.17847 1.90365 3.18948 1.98942 3.20708 2.07299C2.26951 2.02681 1.43758 1.57597 0.880752 0.894224C0.783914 1.06136 0.728892 1.25489 0.728892 1.46161C0.728892 1.85307 0.929172 2.19834 1.23069 2.40067C1.04582 2.39407 0.871949 2.34349 0.720088 2.25992C0.720088 2.26432 0.720088 2.26872 0.720088 2.27531C0.720088 2.82071 1.10964 3.27814 1.62465 3.38151C1.53001 3.4079 1.43097 3.42109 1.32753 3.42109C1.2549 3.42109 1.18447 3.41449 1.11625 3.4013C1.2593 3.84993 1.67747 4.17541 2.17047 4.18421C1.78311 4.4877 1.29672 4.66803 0.768508 4.66803C0.678271 4.66803 0.588035 4.66363 0.5 4.65264C0.997399 4.96932 1.59164 5.15625 2.22769 5.15625Z" fill="white"/>
</svg>
